<?xml version="1.0" encoding="utf-8"?>
<!-- Generator: Adobe Illustrator 23.0.0, SVG Export Plug-In . SVG Version: 6.00 Build 0)  -->
<svg version="1.1" id="Layer_1" xmlns="http://www.w3.org/2000/svg" xmlns:xlink="http://www.w3.org/1999/xlink" x="0px" y="0px"
	 viewBox="0 0 60 100" style="enable-background:new 0 0 60 100;" xml:space="preserve">
<style type="text/css">
	.st0{display:none;fill:#FFFFFF;}
	.st1{fill:#333333;}
	.st2{fill:#ED6526;}
</style>
<path class="st0" d="M-41.88,71.37v-26.4h10.29v26.49c0,3.06,1.08,5.68,3.25,7.85c2.17,2.17,4.8,3.28,7.9,3.35
	c3.06-0.06,5.7-1.18,7.92-3.35c2.21-2.17,3.34-4.79,3.37-7.85V44.97H1.13v26.4c0,3.82-0.96,7.39-2.87,10.7
	c-1.91,3.31-4.52,5.94-7.83,7.9c-3.31,1.96-6.9,2.94-10.79,2.94c-3.91,0-7.53-0.97-10.83-2.91c-3.31-1.94-5.92-4.57-7.83-7.87
	C-40.93,78.8-41.88,75.22-41.88,71.37z"/>
<path class="st0" d="M4.46,69.74v-1.18c0-6.19,2.21-11.57,6.62-16.13c4.41-4.57,9.73-7.06,15.95-7.49c0.36-0.06,0.89-0.09,1.59-0.09
	c0.7,0,1.2,0.03,1.5,0.09c3.12,0.27,5.95,1.03,8.47,2.28c1.03,0.43,2.12,1.03,3.28,1.82c0.03,0,0.06,0.02,0.09,0.07
	c0.03,0.05,0.06,0.07,0.09,0.07V28.01c0-0.21,0.09-0.32,0.27-0.32h9.83c0.12,0,0.18,0.11,0.18,0.32v47.97
	c0,0.39,0.03,0.68,0.09,0.86c0.12,1.52,0.77,2.79,1.94,3.82c1.17,1.03,2.53,1.59,4.07,1.68c0.18,0.06,0.27,0.15,0.27,0.27v9.88
	c0,0.06-0.03,0.09-0.09,0.09h-0.09c-2.52,0-5-0.62-7.46-1.87c-2.45-1.24-4.35-2.87-5.68-4.87c-0.06-0.06-0.12-0.06-0.18,0
	c-2.13,2.12-4.61,3.79-7.43,4.98c-2.82,1.2-5.75,1.84-8.78,1.93h-0.82c-0.21,0-0.54-0.01-0.98-0.05c-0.44-0.03-0.77-0.05-0.98-0.05
	c-6.01-0.67-11.04-3.14-15.11-7.42C7.04,80.98,4.83,75.81,4.46,69.74z M14.75,69.02c0,3.52,1.24,6.59,3.71,9.22
	c2.47,2.62,5.45,4.03,8.94,4.21h2.23c3.37-0.42,6.15-1.69,8.35-3.8c2.2-2.11,3.56-4.86,4.07-8.26v-1.64v-1.41
	c0-1.3-0.42-2.76-1.25-4.37c-0.83-1.61-1.78-2.91-2.84-3.91c-2.61-2.52-5.72-3.82-9.33-3.91c-3.82,0-7.09,1.35-9.81,4.05
	C16.11,61.89,14.75,65.16,14.75,69.02z"/>
<path class="st0" d="M59.42,71.37v-26.4h10.29v26.49c0,3.06,1.08,5.68,3.25,7.85c2.17,2.17,4.8,3.28,7.9,3.35
	c3.06-0.06,5.7-1.18,7.92-3.35c2.21-2.17,3.34-4.79,3.37-7.85V44.97h10.29v26.4c0,3.82-0.96,7.39-2.87,10.7
	c-1.91,3.31-4.52,5.94-7.83,7.9c-3.31,1.96-6.9,2.94-10.79,2.94c-3.91,0-7.53-0.97-10.83-2.91c-3.31-1.94-5.92-4.57-7.83-7.87
	C60.38,78.8,59.42,75.22,59.42,71.37z"/>
<path class="st0" d="M108.26,80.83c-2.15-3.69-3.23-7.68-3.23-11.99c0-4.31,1.05-8.31,3.16-11.99c2.11-3.69,5-6.61,8.67-8.76
	c3.67-2.15,7.69-3.23,12.06-3.23c4.32,0,8.31,1.06,11.99,3.19c3.68,2.12,6.6,5.03,8.75,8.72c2.16,3.69,3.24,7.71,3.24,12.08H153
	v23.85h-10.29V88.4c-1.88,1.37-4.06,2.43-6.53,3.21c-2.47,0.77-4.89,1.16-7.26,1.16c-4.28,0-8.25-1.07-11.92-3.21
	C113.33,87.42,110.42,84.51,108.26,80.83z M119.32,59.16c-2.67,2.69-4.01,5.91-4.01,9.67c0,3.76,1.33,6.99,4.01,9.67
	c2.67,2.69,5.87,4.03,9.6,4.03c3.79,0,7.02-1.34,9.69-4.03c2.67-2.69,4.01-5.91,4.01-9.67c0-3.76-1.34-6.99-4.01-9.67
	c-2.67-2.69-5.9-4.03-9.69-4.03C125.19,55.13,121.99,56.48,119.32,59.16z"/>
<g>
	<path class="st1" d="M42.96,74.29v-0.12h11.95v0.12c0,4.48-1.33,8.65-3.98,12.5c-2.05,2.91-4.71,5.31-7.96,7.2
		c-4.11,2.44-8.63,3.66-13.55,3.66c-4.93,0-9.44-1.22-13.55-3.66c-3.26-1.89-5.91-4.29-7.96-7.2c-2.66-3.85-3.98-8.02-3.98-12.5
		V38.43c0-4.48,1.33-8.61,3.98-12.39c2.06-2.99,4.71-5.43,7.96-7.31c4.11-2.44,8.63-3.66,13.55-3.66c4.92,0,9.44,1.22,13.55,3.66
		c3.25,1.81,5.91,4.25,7.96,7.31c2.65,3.77,3.98,7.9,3.98,12.39H42.96c0-0.08,0-0.16,0-0.24c-0.09-3.38-1.41-6.23-3.98-8.55
		c-2.57-2.32-5.65-3.52-9.25-3.6c-0.09-0.08-0.19-0.12-0.32-0.12c-0.13,0-0.24,0.04-0.32,0.12c-3.68,0.08-6.79,1.28-9.31,3.6
		c-2.53,2.32-3.83,5.17-3.92,8.55c-0.09,0.08-0.13,0.18-0.13,0.29c0,0.12,0.04,0.22,0.13,0.29v35.15c-0.09,0.08-0.13,0.18-0.13,0.29
		c0,0.12,0.04,0.22,0.13,0.29c0.08,3.38,1.39,6.23,3.92,8.55c2.53,2.32,5.63,3.56,9.31,3.72c0.08,0,0.19,0,0.32,0
		c0.13,0,0.23,0,0.32,0c3.6-0.16,6.68-1.4,9.25-3.72c2.57-2.32,3.9-5.17,3.98-8.55C42.96,74.45,42.96,74.37,42.96,74.29z"/>
</g>
<path class="st2" d="M15.17,15.86c-2.15,0.72-3.34,1.67-5.36,3.34c-2.48,2.04-4.05,4.29-6.44,8.23c0-8.34,0-16.69,0-25.03l11.8-0.12
	V15.86z"/>
</svg>
