<?xml version="1.0" encoding="utf-8"?>
<!-- Generator: Adobe Illustrator 23.0.0, SVG Export Plug-In . SVG Version: 6.00 Build 0)  -->
<svg version="1.1" id="Layer_1" xmlns="http://www.w3.org/2000/svg" xmlns:xlink="http://www.w3.org/1999/xlink" x="0px" y="0px"
	 viewBox="0 0 250 100" style="enable-background:new 0 0 250 100;" xml:space="preserve">
<style type="text/css">
	.st0{fill:#FFFFFF;}
	.st1{fill:#ED6526;}
</style>
<g>
	<path class="st0" d="M38.69,71.69v-0.11h11.08v0.11c0,4.16-1.23,8.02-3.69,11.59c-1.91,2.7-4.37,4.92-7.38,6.67
		c-3.81,2.26-8,3.39-12.57,3.39c-4.57,0-8.75-1.13-12.57-3.39c-3.02-1.75-5.48-3.97-7.38-6.67c-2.46-3.57-3.69-7.44-3.69-11.59
		V38.44c0-4.16,1.23-7.98,3.69-11.48c1.91-2.77,4.37-5.03,7.38-6.78c3.81-2.26,8-3.39,12.57-3.39c4.57,0,8.75,1.13,12.57,3.39
		c3.02,1.68,5.48,3.94,7.38,6.78c2.46,3.5,3.69,7.33,3.69,11.48H38.69c0-0.07,0-0.15,0-0.22c-0.08-3.13-1.31-5.78-3.69-7.93
		c-2.38-2.15-5.24-3.26-8.58-3.34c-0.08-0.07-0.18-0.11-0.3-0.11s-0.22,0.04-0.3,0.11c-3.42,0.07-6.29,1.19-8.64,3.34
		c-2.34,2.15-3.55,4.79-3.63,7.93c-0.08,0.07-0.12,0.16-0.12,0.27s0.04,0.2,0.12,0.27v32.59c-0.08,0.07-0.12,0.16-0.12,0.27
		s0.04,0.2,0.12,0.27c0.08,3.14,1.29,5.78,3.63,7.93c2.34,2.15,5.22,3.3,8.64,3.45c0.08,0,0.18,0,0.3,0s0.22,0,0.3,0
		c3.33-0.15,6.19-1.29,8.58-3.45c2.38-2.15,3.61-4.79,3.69-7.93C38.69,71.84,38.69,71.76,38.69,71.69z"/>
</g>
<path class="st0" d="M53.12,71.37v-26.4H63.4v26.49c0,3.06,1.08,5.68,3.25,7.85c2.17,2.17,4.8,3.28,7.9,3.35
	c3.06-0.06,5.7-1.18,7.92-3.35c2.21-2.17,3.34-4.79,3.37-7.85V44.97h10.29v26.4c0,3.82-0.96,7.39-2.87,10.7
	c-1.91,3.31-4.52,5.94-7.83,7.9c-3.31,1.96-6.9,2.94-10.79,2.94c-3.91,0-7.53-0.97-10.83-2.91c-3.31-1.94-5.92-4.57-7.83-7.87
	C54.07,78.8,53.12,75.22,53.12,71.37z"/>
<path class="st0" d="M99.46,69.74v-1.18c0-6.19,2.21-11.57,6.62-16.13c4.41-4.57,9.73-7.06,15.95-7.49
	c0.36-0.06,0.89-0.09,1.59-0.09c0.7,0,1.2,0.03,1.5,0.09c3.12,0.27,5.95,1.03,8.47,2.28c1.03,0.43,2.12,1.03,3.28,1.82
	c0.03,0,0.06,0.02,0.09,0.07c0.03,0.05,0.06,0.07,0.09,0.07V28.01c0-0.21,0.09-0.32,0.27-0.32h9.83c0.12,0,0.18,0.11,0.18,0.32
	v47.97c0,0.39,0.03,0.68,0.09,0.86c0.12,1.52,0.77,2.79,1.94,3.82c1.17,1.03,2.53,1.59,4.07,1.68c0.18,0.06,0.27,0.15,0.27,0.27
	v9.88c0,0.06-0.03,0.09-0.09,0.09h-0.09c-2.52,0-5-0.62-7.46-1.87c-2.45-1.24-4.35-2.87-5.68-4.87c-0.06-0.06-0.12-0.06-0.18,0
	c-2.13,2.12-4.61,3.79-7.43,4.98c-2.82,1.2-5.75,1.84-8.78,1.93h-0.82c-0.21,0-0.54-0.01-0.98-0.05c-0.44-0.03-0.77-0.05-0.98-0.05
	c-6.01-0.67-11.04-3.14-15.11-7.42C102.04,80.98,99.83,75.81,99.46,69.74z M109.75,69.02c0,3.52,1.24,6.59,3.71,9.22
	c2.47,2.62,5.45,4.03,8.94,4.21h2.23c3.37-0.42,6.15-1.69,8.35-3.8c2.2-2.11,3.56-4.86,4.07-8.26v-1.64v-1.41
	c0-1.3-0.42-2.76-1.25-4.37c-0.83-1.61-1.78-2.91-2.84-3.91c-2.61-2.52-5.72-3.82-9.33-3.91c-3.82,0-7.09,1.35-9.81,4.05
	C111.11,61.89,109.75,65.16,109.75,69.02z"/>
<path class="st0" d="M154.42,71.37v-26.4h10.29v26.49c0,3.06,1.08,5.68,3.25,7.85c2.17,2.17,4.8,3.28,7.9,3.35
	c3.06-0.06,5.7-1.18,7.92-3.35c2.21-2.17,3.34-4.79,3.37-7.85V44.97h10.29v26.4c0,3.82-0.96,7.39-2.87,10.7
	c-1.91,3.31-4.52,5.94-7.83,7.9c-3.31,1.96-6.9,2.94-10.79,2.94c-3.91,0-7.53-0.97-10.83-2.91c-3.31-1.94-5.92-4.57-7.83-7.87
	C155.38,78.8,154.42,75.22,154.42,71.37z"/>
<path class="st0" d="M203.26,80.83c-2.15-3.69-3.23-7.68-3.23-11.99c0-4.31,1.05-8.31,3.16-11.99c2.11-3.69,5-6.61,8.67-8.76
	c3.67-2.15,7.69-3.23,12.06-3.23c4.32,0,8.31,1.06,11.99,3.19c3.68,2.12,6.6,5.03,8.75,8.72c2.16,3.69,3.24,7.71,3.24,12.08H248
	v23.85h-10.29V88.4c-1.88,1.37-4.06,2.43-6.53,3.21c-2.47,0.77-4.89,1.16-7.26,1.16c-4.28,0-8.25-1.07-11.92-3.21
	C208.33,87.42,205.42,84.51,203.26,80.83z M214.32,59.16c-2.67,2.69-4.01,5.91-4.01,9.67c0,3.76,1.33,6.99,4.01,9.67
	c2.67,2.69,5.87,4.03,9.6,4.03c3.79,0,7.02-1.34,9.69-4.03c2.67-2.69,4.01-5.91,4.01-9.67c0-3.76-1.34-6.99-4.01-9.67
	c-2.67-2.69-5.9-4.03-9.69-4.03C220.19,55.13,216.99,56.48,214.32,59.16z"/>
<path class="st1" d="M12.92,17.52c-1.99,0.66-3.09,1.55-4.97,3.09c-2.3,1.89-3.76,3.98-5.97,7.63c0-7.74,0-15.47,0-23.21l10.94-0.11
	V17.52z"/>
<g>
</g>
<g>
</g>
<g>
</g>
<g>
</g>
<g>
</g>
<g>
</g>
<g>
</g>
<g>
</g>
<g>
</g>
<g>
</g>
<g>
</g>
</svg>
