<svg xmlns="http://www.w3.org/2000/svg" width="14.74" height="16.378" viewBox="0 0 14.74 16.378">
  <path id="ic_assignment_turned_in_24px" d="M16.1,2.638H12.68a2.447,2.447,0,0,0-4.619,0H4.638A1.643,1.643,0,0,0,3,4.276V15.74a1.643,1.643,0,0,0,1.638,1.638H16.1A1.643,1.643,0,0,0,17.74,15.74V4.276A1.643,1.643,0,0,0,16.1,2.638Zm-5.732,0a.819.819,0,1,1-.819.819A.821.821,0,0,1,10.37,2.638ZM8.732,14.1,5.457,10.827,6.611,9.672l2.121,2.113,5.4-5.4,1.155,1.163Z" transform="translate(-3 -1)" fill="rgba(0,0,0,0.44)"/>
</svg>
