<svg xmlns="http://www.w3.org/2000/svg">

    <!-- pencil edit-->
    <path id="pencil" d="M3,17.25V21H6.75L17.81,9.94,14.06,6.19ZM20.71,7.04a1,1,0,0,0,0-1.41L18.37,3.29a1,1,0,0,0-1.41,0L15.13,5.12l3.75,3.75,1.83-1.83Z" transform="translate(-3 -2.998)"></path>

    <!-- star for review -->
    <path id="star" d="M12,17.27,18.18,21l-1.64-7.03L22,9.24l-7.19-.61L12,2,9.19,8.63,2,9.24l5.46,4.73L5.82,21Z" transform="translate(-2 -2)"></path>

    <!-- product icon for menu -->
    <path id="productIcon" d="M20,6H17.82A2.993,2.993,0,0,0,12.5,3.35l-.5.67-.5-.68A2.994,2.994,0,0,0,6.18,6H4A1.985,1.985,0,0,0,2.01,8L2,19a1.993,1.993,0,0,0,2,2H20a1.993,1.993,0,0,0,2-2V8A1.993,1.993,0,0,0,20,6ZM15,4a1,1,0,1,1-1,1A1,1,0,0,1,15,4ZM9,4A1,1,0,1,1,8,5,1,1,0,0,1,9,4ZM20,19H4V17H20Zm0-5H4V8H9.08L7,10.83,8.62,12,11,8.76,12,7.4l1,1.36L15.38,12,17,10.83,14.92,8H20Z" transform="translate(-2 -2)"></path>

    <!-- cart symbol for order used in menu menu -->
    <path id="order" d="M7,18a2,2,0,1,0,2,2A2,2,0,0,0,7,18ZM1,2V4H3l3.6,7.59L5.25,14.04A1.933,1.933,0,0,0,5,15a2.006,2.006,0,0,0,2,2H19V15H7.42a.248.248,0,0,1-.25-.25l.03-.12L8.1,13h7.45a1.991,1.991,0,0,0,1.75-1.03l3.58-6.49A.977.977,0,0,0,21,5a1,1,0,0,0-1-1H5.21L4.27,2H1ZM17,18a2,2,0,1,0,2,2A2,2,0,0,0,17,18Z" transform="translate(-1 -2)"></path>

    <!-- categories for menu -->
    <g id="categories" data-name="Group 320" transform="translate(2 0.734)">
        <g id="Group_321" data-name="Group 321" transform="translate(-110 -55)">
            <path id="" d="M3,9H1V20a1.993,1.993,0,0,0,2,2H17a1.993,1.993,0,0,0,2-2H3ZM18,5V3a1.993,1.993,0,0,0-2-2H12a1.993,1.993,0,0,0-2,2V5H5V16a1.993,1.993,0,0,0,2,2H21a1.993,1.993,0,0,0,2-2V5ZM12,3h4V5H12Zm0,12V8l5.5,3Z" transform="translate(107 53.266)"></path>
        </g>
    </g>

    <!-- report for menu -->
    <path id="report" d="M12,2A10,10,0,1,0,22,12,10,10,0,0,0,12,2Zm1,15H11V11h2Zm0-8H11V7h2Z" transform="translate(-2 -2)"></path>

    <!-- message for menu -->
    <path id="message" data-name="Union 11" d="M11.875,15.438H5.938l2.171-2.376h7.329a1.187,1.187,0,0,0,1.187-1.187V4.751h1.187A1.187,1.187,0,0,1,19,5.938v8.312a1.188,1.188,0,0,1-1.187,1.188H15.438V19ZM3.562,10.687H1.187A1.188,1.188,0,0,1,0,9.5V1.187A1.188,1.188,0,0,1,1.187,0H13.062a1.188,1.188,0,0,1,1.187,1.187V9.5a1.187,1.187,0,0,1-1.187,1.187H7.125L3.562,14.249Z"></path>

    <!-- profile for menu -->
    <path id="profile" d="M18.147,12.159a7.21,7.21,0,0,0,.065-.907,7.211,7.211,0,0,0-.065-.907L20.1,8.819a.467.467,0,0,0,.111-.592l-1.85-3.2a.465.465,0,0,0-.564-.2l-2.3.925a6.76,6.76,0,0,0-1.564-.907l-.352-2.452A.451.451,0,0,0,13.123,2h-3.7a.451.451,0,0,0-.453.389L8.617,4.84a7.108,7.108,0,0,0-1.564.907l-2.3-.925a.451.451,0,0,0-.564.2l-1.85,3.2a.456.456,0,0,0,.111.592L4.4,10.346a7.338,7.338,0,0,0-.065.907,7.338,7.338,0,0,0,.065.907L2.446,13.686a.467.467,0,0,0-.111.592l1.85,3.2a.465.465,0,0,0,.564.2l2.3-.925a6.76,6.76,0,0,0,1.564.907l.352,2.452a.451.451,0,0,0,.453.389h3.7a.451.451,0,0,0,.453-.389l.352-2.452a7.109,7.109,0,0,0,1.564-.907l2.3.925a.451.451,0,0,0,.564-.2l1.85-3.2a.467.467,0,0,0-.111-.592Zm-6.875,2.332a3.238,3.238,0,1,1,3.238-3.238A3.242,3.242,0,0,1,11.273,14.491Z" transform="translate(-2.271 -2)"></path>

    <!-- logout for menu -->
    <path id="logout" d="M12.444,3H10.556v9.444h1.889Zm4.562,2.049L15.665,6.391A6.536,6.536,0,0,1,18.111,11.5,6.611,6.611,0,1,1,7.326,6.381L5.994,5.049A8.492,8.492,0,1,0,20,11.5,8.436,8.436,0,0,0,17.006,5.049Z" transform="translate(-3 -3)"></path>

    <!-- add product -->
    <path id="addProduct" d="M16,8H14v3H11v2h3v3h2V13h3V11H16ZM15,3a9,9,0,1,0,9,9A9.014,9.014,0,0,0,15,3Zm0,16a7,7,0,1,1,7-7A7.008,7.008,0,0,1,15,19Z" transform="translate(-6 -3)"></path>

    <!-- Visit shop icon -->
    <path id="visitShop" d="M20,4H4V6H20Zm1,10V12L20,7H4L3,12v2H4v6H14V14h4v6h2V14Zm-9,4H6V14h6Z" transform="translate(-3 -4)"></path>

    <!-- Chip delete -->
    <g id="chipDelete" data-name="Icon / Cancel / Filled" opacity="0.5">
        <rect id="Box"></rect>
        <path id="Icon_Cancel_Dark" data-name="Icon / Cancel / Dark" d="M151.389-13.6l-.989.989-2.511-2.511-2.511,2.511-.989-.989,2.511-2.511-2.511-2.511.989-.989,2.511,2.511,2.511-2.511.989.989-2.511,2.511Zm-3.5-9.511a7,7,0,0,0-7,7,7,7,0,0,0,7,7,7,7,0,0,0,7-7,7,7,0,0,0-7-7Z" transform="translate(-140.889 23.111)" fill-rule="evenodd"></path>
    </g>

    <!-- times to close modal -->
    <path id="times" d="M19,6.41,17.59,5,12,10.59,6.41,5,5,6.41,10.59,12,5,17.59,6.41,19,12,13.41,17.59,19,19,17.59,13.41,12Z" transform="translate(-5 -5)"></path>

    <!-- down arrow -->
    <path id="arrowDown" d="M19.459,0,11.025,8.416,2.591,0,0,2.591,11.025,13.616,22.05,2.591Z" fill="rgba(0,0,0,0.6)"></path>

    <!-- map marker -->
    <path id="mapPlace" d="M12,2A7,7,0,0,0,5,9c0,5.25,7,13,7,13s7-7.75,7-13A7,7,0,0,0,12,2Zm0,9.5A2.5,2.5,0,1,1,14.5,9,2.5,2.5,0,0,1,12,11.5Z" transform="translate(-5 -2)"></path>

    <!-- copy content -->
    <path id="copy" d="M16,1H4A2.006,2.006,0,0,0,2,3V17H4V3H16Zm3,4H8A2.006,2.006,0,0,0,6,7V21a2.006,2.006,0,0,0,2,2H19a2.006,2.006,0,0,0,2-2V7A2.006,2.006,0,0,0,19,5Zm0,16H8V7H19Z" transform="translate(-2 -1)"></path>

    <!-- email -->
    <path id="email" d="M16.457,4H3.606a1.6,1.6,0,0,0-1.6,1.606L2,15.244A1.611,1.611,0,0,0,3.606,16.85h12.85a1.611,1.611,0,0,0,1.606-1.606V5.606A1.611,1.611,0,0,0,16.457,4Zm0,3.213-6.425,4.016L3.606,7.213V5.606l6.425,4.016,6.425-4.016Z" fill="rgba(0,0,0,0.6)" transform="translate(-2 -4)"></path>

    <!-- phone -->
    <path id="phone" d="M5.694,8.8A11.276,11.276,0,0,0,10.6,13.7l1.638-1.638A.74.74,0,0,1,13,11.887a8.491,8.491,0,0,0,2.657.424.747.747,0,0,1,.744.744v2.6a.747.747,0,0,1-.744.744A12.653,12.653,0,0,1,3,3.744.747.747,0,0,1,3.744,3H6.349a.747.747,0,0,1,.744.744A8.456,8.456,0,0,0,7.518,6.4a.747.747,0,0,1-.186.759Z" fill="rgba(0,0,0,0.6)" transform="translate(-3 -3)"></path>

    <!-- turn off visibility -->
    <path id="visibilityOff" d="M12,7a5,5,0,0,1,5,5,4.853,4.853,0,0,1-.36,1.83l2.92,2.92A11.817,11.817,0,0,0,22.99,12a11.827,11.827,0,0,0-11-7.5,11.645,11.645,0,0,0-3.98.7l2.16,2.16A4.853,4.853,0,0,1,12,7ZM2,4.27,4.28,6.55l.46.46A11.8,11.8,0,0,0,1,12a11.822,11.822,0,0,0,15.38,6.66l.42.42L19.73,22,21,20.73,3.27,3ZM7.53,9.8l1.55,1.55A2.821,2.821,0,0,0,9,12a3,3,0,0,0,3,3,2.821,2.821,0,0,0,.65-.08l1.55,1.55A4.967,4.967,0,0,1,7.53,9.8Zm4.31-.78,3.15,3.15.02-.16a3,3,0,0,0-3-3Z" transform="translate(-1 -3)"></path>

    <!-- turn visibility on -->
    <path id="visibilityOn" d="M572.52 241.4C518.29 135.59 410.93 64 288 64S57.68 135.64 3.48 241.41a32.35 32.35 0 0 0 0 29.19C57.71 376.41 165.07 448 288 448s230.32-71.64 284.52-177.41a32.35 32.35 0 0 0 0-29.19zM288 400a144 144 0 1 1 144-144 143.93 143.93 0 0 1-144 144zm0-240a95.31 95.31 0 0 0-25.31 3.79 47.85 47.85 0 0 1-66.9 66.9A95.78 95.78 0 1 0 288 160z"></path>

    <!-- delete trash -->
    <path id="delete" d="M6.194,22.111A2.4,2.4,0,0,0,8.583,24.5h9.556a2.4,2.4,0,0,0,2.389-2.389V7.778H6.194Zm2.938-8.5,1.684-1.684,2.544,2.532,2.532-2.532,1.684,1.684-2.532,2.532,2.532,2.532-1.684,1.684-2.532-2.532-2.532,2.532L9.145,18.671l2.532-2.532Zm8.409-9.412L16.347,3H10.375L9.181,4.194H5V6.583H21.722V4.194Z" transform="translate(-5 -3)" fill="rgba(0,0,0,0.6)"></path>

    <!-- cheveron right -->
    <path id="rightArrow" d="M10,6,8.59,7.41,13.17,12,8.59,16.59,10,18l6-6Z" transform="translate(-8.59 -6)"></path>
    
    <!-- cheveron left -->
    <path id="leftArrow" d="M15.41,16.09,10.83,11.5l4.58-4.59L14,5.5l-6,6,6,6Z" transform="translate(-8 -5.5)"></path>

    <!-- keyboard backspace -->
    <path id="backSpace" d="M30.512,13.642H8.854l5.472-5.487L12.171,6,3,15.171l9.171,9.171,2.155-2.155L8.854,16.7H30.512Z" transform="translate(-3 -6)" fill="#404040"></path>

    <!-- camera/photo-upload -->
    <path id="camera" d="M3,4V1H5V4H8V6H5V9H3V6H0V4Zm3,6V7H9V4h7l1.83,2H21a2.006,2.006,0,0,1,2,2V20a2.006,2.006,0,0,1-2,2H5a2.006,2.006,0,0,1-2-2V10Zm7,9a5,5,0,1,0-5-5A5,5,0,0,0,13,19ZM9.8,14A3.2,3.2,0,1,0,13,10.8,3.2,3.2,0,0,0,9.8,14Z" transform="translate(0 -1)"></path>

    <!-- vertical ellipsis -->
    <path id="verticalElipsis" d="M12,8a2,2,0,1,0-2-2A2.006,2.006,0,0,0,12,8Zm0,2a2,2,0,1,0,2,2A2.006,2.006,0,0,0,12,10Zm0,6a2,2,0,1,0,2,2A2.006,2.006,0,0,0,12,16Z" transform="translate(-10 -4)"></path>

    <!-- globe -->
    <path id="globe" d="M248 8C111.03 8 0 119.03 0 256s111.03 248 248 248 248-111.03 248-248S384.97 8 248 8zm160 215.5v6.93c0 5.87-3.32 11.24-8.57 13.86l-15.39 7.7a15.485 15.485 0 0 1-15.53-.97l-18.21-12.14a15.52 15.52 0 0 0-13.5-1.81l-2.65.88c-9.7 3.23-13.66 14.79-7.99 23.3l13.24 19.86c2.87 4.31 7.71 6.9 12.89 6.9h8.21c8.56 0 15.5 6.94 15.5 15.5v11.34c0 3.35-1.09 6.62-3.1 9.3l-18.74 24.98c-1.42 1.9-2.39 4.1-2.83 6.43l-4.3 22.83c-.62 3.29-2.29 6.29-4.76 8.56a159.608 159.608 0 0 0-25 29.16l-13.03 19.55a27.756 27.756 0 0 1-23.09 12.36c-10.51 0-20.12-5.94-24.82-15.34a78.902 78.902 0 0 1-8.33-35.29V367.5c0-8.56-6.94-15.5-15.5-15.5h-25.88c-14.49 0-28.38-5.76-38.63-16a54.659 54.659 0 0 1-16-38.63v-14.06c0-17.19 8.1-33.38 21.85-43.7l27.58-20.69a54.663 54.663 0 0 1 32.78-10.93h.89c8.48 0 16.85 1.97 24.43 5.77l14.72 7.36c3.68 1.84 7.93 2.14 11.83.84l47.31-15.77c6.33-2.11 10.6-8.03 10.6-14.7 0-8.56-6.94-15.5-15.5-15.5h-10.09c-4.11 0-8.05-1.63-10.96-4.54l-6.92-6.92a15.493 15.493 0 0 0-10.96-4.54H199.5c-8.56 0-15.5-6.94-15.5-15.5v-4.4c0-7.11 4.84-13.31 11.74-15.04l14.45-3.61c3.74-.94 7-3.23 9.14-6.44l8.08-12.11c2.87-4.31 7.71-6.9 12.89-6.9h24.21c8.56 0 15.5-6.94 15.5-15.5v-21.7C359.23 71.63 422.86 131.02 441.93 208H423.5c-8.56 0-15.5 6.94-15.5 15.5z"></path>

    <!-- plus circle -->
    <path id="plusSign" d="M416 208H272V64c0-17.67-14.33-32-32-32h-32c-17.67 0-32 14.33-32 32v144H32c-17.67 0-32 14.33-32 32v32c0 17.67 14.33 32 32 32h144v144c0 17.67 14.33 32 32 32h32c17.67 0 32-14.33 32-32V304h144c17.67 0 32-14.33 32-32v-32c0-17.67-14.33-32-32-32z"></path>

    <!-- big checkbox -->
    <g id="bigCheckBox">
        <path d="m159.988281 318.582031c-3.988281 4.011719-9.429687 6.25-15.082031 6.25s-11.09375-2.238281-15.082031-6.25l-120.449219-120.46875c-12.5-12.5-12.5-32.769531 0-45.246093l15.082031-15.085938c12.503907-12.5 32.75-12.5 45.25 0l75.199219 75.203125 203.199219-203.203125c12.503906-12.5 32.769531-12.5 45.25 0l15.082031 15.085938c12.5 12.5 12.5 32.765624 0 45.246093zm0 0"></path>
    </g>

    <g id="followers">
        <path d="m197.573 188.379h-6.15c-35.801 0-65.108 28.328-66.681 63.748h139.512c-1.577-35.416-30.883-63.748-66.681-63.748z"></path>
        <path d="m428.513 0h-348.031c-44.366 0-80.461 39.036-80.461 87.019v219.758c0 47.982 36.095 87.018 80.461 87.018h104.492l56.241 107.171c2.591 4.937 7.706 8.03 13.282 8.03s10.691-3.093 13.282-8.03l56.241-107.171h104.492c44.366 0 80.461-39.036 80.461-87.018v-219.758c.001-47.983-36.094-87.019-80.46-87.019zm-161.193 282.128h-145.645c-14.888 0-27-12.112-27-27 0-40.134 24.565-74.635 59.448-89.266-10.311-10.331-16.695-24.581-16.695-40.295 0-31.468 25.601-57.07 57.069-57.07s57.069 25.602 57.069 57.07c0 15.714-6.385 29.964-16.695 40.295 34.883 14.63 59.448 49.131 59.448 89.265.001 14.888-12.111 27.001-26.999 27.001zm129.796-24.774c0 6.353-7.742 9.529-15.485 9.529-7.742 0-15.485-3.177-15.485-9.529v-101.053l-5.758 3.574c-1.786 1.191-3.573 1.588-4.963 1.588-5.758 0-9.729-6.155-9.729-12.309 0-4.169 1.787-8.14 5.758-10.522l26.206-15.882c1.589-.993 3.574-1.39 5.758-1.39 6.353 0 13.698 3.772 13.698 9.728z"></path>
        <path d="m194.498 152.637c14.926 0 27.069-12.143 27.069-27.07 0-14.926-12.144-27.07-27.069-27.07s-27.069 12.144-27.069 27.07c-.001 14.927 12.143 27.07 27.069 27.07z"></path>
    </g>

    <!-- copy icon -->
    <path  id="copyIcon" d="M433.941 65.941l-51.882-51.882A48 48 0 0 0 348.118 0H176c-26.51 0-48 21.49-48 48v48H48c-26.51 0-48 21.49-48 48v320c0 26.51 21.49 48 48 48h224c26.51 0 48-21.49 48-48v-48h80c26.51 0 48-21.49 48-48V99.882a48 48 0 0 0-14.059-33.941zM266 464H54a6 6 0 0 1-6-6V150a6 6 0 0 1 6-6h74v224c0 26.51 21.49 48 48 48h96v42a6 6 0 0 1-6 6zm128-96H182a6 6 0 0 1-6-6V54a6 6 0 0 1 6-6h106v88c0 13.255 10.745 24 24 24h88v202a6 6 0 0 1-6 6zm6-256h-64V48h9.632c1.591 0 3.117.632 4.243 1.757l48.368 48.368a6 6 0 0 1 1.757 4.243V112z"></path>

    <!-- facebook -->
    <g id="facebookIcon">
	   <path fill="#4267B2" d="M279.14 288l14.22-92.66h-88.91v-60.13c0-25.35 12.42-50.06 52.24-50.06h40.42V6.26S260.43 0 225.36 0c-73.22 0-121.08 44.38-121.08 124.72v70.62H22.89V288h81.39v224h100.17V288z"></path>
    </g>
    
    <!-- facebook-round icon -->
    <path id="facebookRoundIcon" d="M504 256C504 119 393 8 256 8S8 119 8 256c0 123.78 90.69 226.38 209.25 245V327.69h-63V256h63v-54.64c0-62.15 37-96.48 93.67-96.48 27.14 0 55.52 4.84 55.52 4.84v61h-31.28c-30.8 0-40.41 19.12-40.41 38.73V256h68.78l-11 71.69h-57.78V501C413.31 482.38 504 379.78 504 256z"></path>


    <!-- whatsapp Icon -->
    <path id="whatsappIcon" fill="#25D366" d="M380.9 97.1C339 55.1 283.2 32 223.9 32c-122.4 0-222 99.6-222 222 0 39.1 10.2 77.3 29.6 111L0 480l117.7-30.9c32.4 17.7 68.9 27 106.1 27h.1c122.3 0 224.1-99.6 224.1-222 0-59.3-25.2-115-67.1-157zm-157 341.6c-33.2 0-65.7-8.9-94-25.7l-6.7-4-69.8 18.3L72 359.2l-4.4-7c-18.5-29.4-28.2-63.3-28.2-98.2 0-101.7 82.8-184.5 184.6-184.5 49.3 0 95.6 19.2 130.4 54.1 34.8 34.9 56.2 81.2 56.1 130.5 0 101.8-84.9 184.6-186.6 184.6zm101.2-138.2c-5.5-2.8-32.8-16.2-37.9-18-5.1-1.9-8.8-2.8-12.5 2.8-3.7 5.6-14.3 18-17.6 21.8-3.2 3.7-6.5 4.2-12 1.4-32.6-16.3-54-29.1-75.5-66-5.7-9.8 5.7-9.1 16.3-30.3 1.8-3.7.9-6.9-.5-9.7-1.4-2.8-12.5-30.1-17.1-41.2-4.5-10.8-9.1-9.3-12.5-9.5-3.2-.2-6.9-.2-10.6-.2-3.7 0-9.7 1.4-14.8 6.9-5.1 5.6-19.4 19-19.4 46.3 0 27.3 19.9 53.7 22.6 57.4 2.8 3.7 39.1 59.7 94.8 83.8 35.2 15.2 49 16.5 66.6 13.9 10.7-1.6 32.8-13.4 37.4-26.4 4.6-13 4.6-24.1 3.2-26.4-1.3-2.5-5-3.9-10.5-6.6z"></path>

    <!-- whatsappIcon2 -->
    <path id="whatsappIcon2" d="M380.9 97.1C339 55.1 283.2 32 223.9 32c-122.4 0-222 99.6-222 222 0 39.1 10.2 77.3 29.6 111L0 480l117.7-30.9c32.4 17.7 68.9 27 106.1 27h.1c122.3 0 224.1-99.6 224.1-222 0-59.3-25.2-115-67.1-157zm-157 341.6c-33.2 0-65.7-8.9-94-25.7l-6.7-4-69.8 18.3L72 359.2l-4.4-7c-18.5-29.4-28.2-63.3-28.2-98.2 0-101.7 82.8-184.5 184.6-184.5 49.3 0 95.6 19.2 130.4 54.1 34.8 34.9 56.2 81.2 56.1 130.5 0 101.8-84.9 184.6-186.6 184.6zm101.2-138.2c-5.5-2.8-32.8-16.2-37.9-18-5.1-1.9-8.8-2.8-12.5 2.8-3.7 5.6-14.3 18-17.6 21.8-3.2 3.7-6.5 4.2-12 1.4-32.6-16.3-54-29.1-75.5-66-5.7-9.8 5.7-9.1 16.3-30.3 1.8-3.7.9-6.9-.5-9.7-1.4-2.8-12.5-30.1-17.1-41.2-4.5-10.8-9.1-9.3-12.5-9.5-3.2-.2-6.9-.2-10.6-.2-3.7 0-9.7 1.4-14.8 6.9-5.1 5.6-19.4 19-19.4 46.3 0 27.3 19.9 53.7 22.6 57.4 2.8 3.7 39.1 59.7 94.8 83.8 35.2 15.2 49 16.5 66.6 13.9 10.7-1.6 32.8-13.4 37.4-26.4 4.6-13 4.6-24.1 3.2-26.4-1.3-2.5-5-3.9-10.5-6.6z"></path>

    <!-- twitter -->
    <path id="twitterIcon" fill="#1DA1F2" d="M459.37 151.716c.325 4.548.325 9.097.325 13.645 0 138.72-105.583 298.558-298.558 298.558-59.452 0-114.68-17.219-161.137-47.106 8.447.974 16.568 1.299 25.34 1.299 49.055 0 94.213-16.568 130.274-44.832-46.132-.975-84.792-31.188-98.112-72.772 6.498.974 12.995 1.624 19.818 1.624 9.421 0 18.843-1.3 27.614-3.573-48.081-9.747-84.143-51.98-84.143-102.985v-1.299c13.969 7.797 30.214 12.67 47.431 13.319-28.264-18.843-46.781-51.005-46.781-87.391 0-19.492 5.197-37.36 14.294-52.954 51.655 63.675 129.3 105.258 216.365 109.807-1.624-7.797-2.599-15.918-2.599-24.04 0-57.828 46.782-104.934 104.934-104.934 30.213 0 57.502 12.67 76.67 33.137 23.715-4.548 46.456-13.32 66.599-25.34-7.798 24.366-24.366 44.833-46.132 57.827 21.117-2.273 41.584-8.122 60.426-16.243-14.292 20.791-32.161 39.308-52.628 54.253z"></path>

    <!-- twitter icon 2-->
    <path id="twitterIcon2" d="M459.37 151.716c.325 4.548.325 9.097.325 13.645 0 138.72-105.583 298.558-298.558 298.558-59.452 0-114.68-17.219-161.137-47.106 8.447.974 16.568 1.299 25.34 1.299 49.055 0 94.213-16.568 130.274-44.832-46.132-.975-84.792-31.188-98.112-72.772 6.498.974 12.995 1.624 19.818 1.624 9.421 0 18.843-1.3 27.614-3.573-48.081-9.747-84.143-51.98-84.143-102.985v-1.299c13.969 7.797 30.214 12.67 47.431 13.319-28.264-18.843-46.781-51.005-46.781-87.391 0-19.492 5.197-37.36 14.294-52.954 51.655 63.675 129.3 105.258 216.365 109.807-1.624-7.797-2.599-15.918-2.599-24.04 0-57.828 46.782-104.934 104.934-104.934 30.213 0 57.502 12.67 76.67 33.137 23.715-4.548 46.456-13.32 66.599-25.34-7.798 24.366-24.366 44.833-46.132 57.827 21.117-2.273 41.584-8.122 60.426-16.243-14.292 20.791-32.161 39.308-52.628 54.253z"></path>

    <!-- dashboard -->
    <path id="dashboard" d="M332.8 320h38.4c6.4 0 12.8-6.4 12.8-12.8V172.8c0-6.4-6.4-12.8-12.8-12.8h-38.4c-6.4 0-12.8 6.4-12.8 12.8v134.4c0 6.4 6.4 12.8 12.8 12.8zm96 0h38.4c6.4 0 12.8-6.4 12.8-12.8V76.8c0-6.4-6.4-12.8-12.8-12.8h-38.4c-6.4 0-12.8 6.4-12.8 12.8v230.4c0 6.4 6.4 12.8 12.8 12.8zm-288 0h38.4c6.4 0 12.8-6.4 12.8-12.8v-70.4c0-6.4-6.4-12.8-12.8-12.8h-38.4c-6.4 0-12.8 6.4-12.8 12.8v70.4c0 6.4 6.4 12.8 12.8 12.8zm96 0h38.4c6.4 0 12.8-6.4 12.8-12.8V108.8c0-6.4-6.4-12.8-12.8-12.8h-38.4c-6.4 0-12.8 6.4-12.8 12.8v198.4c0 6.4 6.4 12.8 12.8 12.8zM496 384H64V80c0-8.84-7.16-16-16-16H16C7.16 64 0 71.16 0 80v336c0 17.67 14.33 32 32 32h464c8.84 0 16-7.16 16-16v-32c0-8.84-7.16-16-16-16z"></path>

    <!-- big gifit -->
    <path id="bigGift" d="M32 448c0 17.7 14.3 32 32 32h160V320H32v128zm256 32h160c17.7 0 32-14.3 32-32V320H288v160zm192-320h-42.1c6.2-12.1 10.1-25.5 10.1-40 0-48.5-39.5-88-88-88-41.6 0-68.5 21.3-103 68.3-34.5-47-61.4-68.3-103-68.3-48.5 0-88 39.5-88 88 0 14.5 3.8 27.9 10.1 40H32c-17.7 0-32 14.3-32 32v80c0 8.8 7.2 16 16 16h480c8.8 0 16-7.2 16-16v-80c0-17.7-14.3-32-32-32zm-326.1 0c-22.1 0-40-17.9-40-40s17.9-40 40-40c19.9 0 34.6 3.3 86.1 80h-86.1zm206.1 0h-86.1c51.4-76.5 65.7-80 86.1-80 22.1 0 40 17.9 40 40s-17.9 40-40 40z"></path>

    <!-- big smile -->
    <path id="bigSmile" d="M248 8C111 8 0 119 0 256s111 248 248 248 248-111 248-248S385 8 248 8zm0 448c-110.3 0-200-89.7-200-200S137.7 56 248 56s200 89.7 200 200-89.7 200-200 200zm-80-216c17.7 0 32-14.3 32-32s-14.3-32-32-32-32 14.3-32 32 14.3 32 32 32zm160 0c17.7 0 32-14.3 32-32s-14.3-32-32-32-32 14.3-32 32 14.3 32 32 32zm4 72.6c-20.8 25-51.5 39.4-84 39.4s-63.2-14.3-84-39.4c-8.5-10.2-23.7-11.5-33.8-3.1-10.2 8.5-11.5 23.6-3.1 33.8 30 36 74.1 56.6 120.9 56.6s90.9-20.6 120.9-56.6c8.5-10.2 7.1-25.3-3.1-33.8-10.1-8.4-25.3-7.1-33.8 3.1z"></path>
    
	<path id="naira" d="M477.832,274.28h-67.743v-65.106h67.743c10.179,0,18.43-8.243,18.43-18.424c0-10.182-8.251-18.43-18.43-18.43h-67.743
		V81.982c0-13.187-2.606-22.866-7.743-28.762c-4.882-5.609-11.301-8.219-20.19-8.219c-8.482,0-14.659,2.592-19.447,8.166
		c-5.077,5.902-7.654,15.599-7.654,28.821v90.343H227.627l-54.181-81.988c-4.637-7.317-8.997-14.171-13.231-20.75
		c-3.812-5.925-7.53-10.749-11.042-14.351c-3.109-3.189-6.652-5.657-10.796-7.554c-3.91-1.785-8.881-2.681-14.762-2.681
		c-7.501,0-14.31,2.055-20.83,6.277c-6.452,4.176-10.912,9.339-13.636,15.785c-2.391,6.126-3.656,15.513-3.656,27.63v77.626h-67.07
		C8.246,172.326,0,180.574,0,190.755c0,10.181,8.246,18.424,18.424,18.424h67.07v65.113h-67.07C8.246,274.292,0,282.538,0,292.722
		C0,302.9,8.246,311.14,18.424,311.14h67.07v103.143c0,12.797,2.689,22.378,8.015,28.466c5.065,5.805,11.487,8.5,20.208,8.5
		c8.414,0,14.786-2.707,20.07-8.523c5.411-5.958,8.148-15.533,8.148-28.442V311.14h115.308l62.399,95.683
		c4.339,6.325,8.819,12.709,13.287,18.969c4.031,5.621,8.429,10.574,13.069,14.711c4.179,3.742,8.659,6.484,13.316,8.157
		c4.794,1.726,10.397,2.601,16.615,2.601c16.875,0,34.158-5.166,34.158-43.479V311.14h67.743c10.179,0,18.43-8.252,18.43-18.43
		C496.262,282.532,488.011,274.28,477.832,274.28z M355.054,209.173v65.106h-60.041l-43.021-65.106H355.054z M141.936,134.364
		l24.76,37.956h-24.76V134.364z M141.936,274.28v-65.106h48.802l42.466,65.106H141.936z M355.054,365.153l-35.683-54.013h35.683
		V365.153z"></path>
    
     <!-- person -->
    <path id="person" d="M12,12A4,4,0,1,0,8,8,4,4,0,0,0,12,12Zm0,2c-2.67,0-8,1.34-8,4v2H20V18C20,15.34,14.67,14,12,14Z" transform="translate(-4 -4)"></path>

    <path id="followerBig" d="M192 256c61.9 0 112-50.1 112-112S253.9 32 192 32 80 82.1 80 144s50.1 112 112 112zm76.8 32h-8.3c-20.8 10-43.9 16-68.5 16s-47.6-6-68.5-16h-8.3C51.6 288 0 339.6 0 403.2V432c0 26.5 21.5 48 48 48h288c26.5 0 48-21.5 48-48v-28.8c0-63.6-51.6-115.2-115.2-115.2zM480 256c53 0 96-43 96-96s-43-96-96-96-96 43-96 96 43 96 96 96zm48 32h-3.8c-13.9 4.8-28.6 8-44.2 8s-30.3-3.2-44.2-8H432c-20.4 0-39.2 5.9-55.7 15.4 24.4 26.3 39.7 61.2 39.7 99.8v38.4c0 2.2-.5 4.3-.6 6.4H592c26.5 0 48-21.5 48-48 0-61.9-50.1-112-112-112z"></path>

    <!-- search -->
    <path id="searchGlass" d="M505 442.7L405.3 343c-4.5-4.5-10.6-7-17-7H372c27.6-35.3 44-79.7 44-128C416 93.1 322.9 0 208 0S0 93.1 0 208s93.1 208 208 208c48.3 0 92.7-16.4 128-44v16.3c0 6.4 2.5 12.5 7 17l99.7 99.7c9.4 9.4 24.6 9.4 33.9 0l28.3-28.3c9.4-9.4 9.4-24.6.1-34zM208 336c-70.7 0-128-57.2-128-128 0-70.7 57.2-128 128-128 70.7 0 128 57.2 128 128 0 70.7-57.2 128-128 128z"></path>

    <!-- home icon -->
    <path id="homeIcon" d="M11.882,24V16.588h4.941V24H23V14.118h3.706L14.353,3,2,14.118H5.706V24Z" transform="translate(-2 -3)"></path>

    <!-- map maker -->
    <path id="mapMaker" d="M10.937,2A5.933,5.933,0,0,0,5,7.937c0,4.453,5.937,11.026,5.937,11.026s5.937-6.573,5.937-11.026A5.933,5.933,0,0,0,10.937,2Zm0,8.057a2.12,2.12,0,1,1,2.12-2.12A2.121,2.121,0,0,1,10.937,10.057Z" transform="translate(-5 -2)"></path>

    <!-- thumbs up -->
    <path id="thumbsUp" d="M104 224H24c-13.255 0-24 10.745-24 24v240c0 13.255 10.745 24 24 24h80c13.255 0 24-10.745 24-24V248c0-13.255-10.745-24-24-24zM64 472c-13.255 0-24-10.745-24-24s10.745-24 24-24 24 10.745 24 24-10.745 24-24 24zM384 81.452c0 42.416-25.97 66.208-33.277 94.548h101.723c33.397 0 59.397 27.746 59.553 58.098.084 17.938-7.546 37.249-19.439 49.197l-.11.11c9.836 23.337 8.237 56.037-9.308 79.469 8.681 25.895-.069 57.704-16.382 74.757 4.298 17.598 2.244 32.575-6.148 44.632C440.202 511.587 389.616 512 346.839 512l-2.845-.001c-48.287-.017-87.806-17.598-119.56-31.725-15.957-7.099-36.821-15.887-52.651-16.178-6.54-.12-11.783-5.457-11.783-11.998v-213.77c0-3.2 1.282-6.271 3.558-8.521 39.614-39.144 56.648-80.587 89.117-113.111 14.804-14.832 20.188-37.236 25.393-58.902C282.515 39.293 291.817 0 312 0c24 0 72 8 72 81.452z"></path>

    <!-- big delete -->
    <path id="bigDelete" d="M268 416h24a12 12 0 0 0 12-12V188a12 12 0 0 0-12-12h-24a12 12 0 0 0-12 12v216a12 12 0 0 0 12 12zM432 80h-82.41l-34-56.7A48 48 0 0 0 274.41 0H173.59a48 48 0 0 0-41.16 23.3L98.41 80H16A16 16 0 0 0 0 96v16a16 16 0 0 0 16 16h16v336a48 48 0 0 0 48 48h288a48 48 0 0 0 48-48V128h16a16 16 0 0 0 16-16V96a16 16 0 0 0-16-16zM171.84 50.91A6 6 0 0 1 177 48h94a6 6 0 0 1 5.15 2.91L293.61 80H154.39zM368 464H80V128h288zm-212-48h24a12 12 0 0 0 12-12V188a12 12 0 0 0-12-12h-24a12 12 0 0 0-12 12v216a12 12 0 0 0 12 12z"></path>

    <!-- invite business -->
    <path id="inviteBusiness" d="M176 216h160c8.84 0 16-7.16 16-16v-16c0-8.84-7.16-16-16-16H176c-8.84 0-16 7.16-16 16v16c0 8.84 7.16 16 16 16zm-16 80c0 8.84 7.16 16 16 16h160c8.84 0 16-7.16 16-16v-16c0-8.84-7.16-16-16-16H176c-8.84 0-16 7.16-16 16v16zm96 121.13c-16.42 0-32.84-5.06-46.86-15.19L0 250.86V464c0 26.51 21.49 48 48 48h416c26.51 0 48-21.49 48-48V250.86L302.86 401.94c-14.02 10.12-30.44 15.19-46.86 15.19zm237.61-254.18c-8.85-6.94-17.24-13.47-29.61-22.81V96c0-26.51-21.49-48-48-48h-77.55c-3.04-2.2-5.87-4.26-9.04-6.56C312.6 29.17 279.2-.35 256 0c-23.2-.35-56.59 29.17-73.41 41.44-3.17 2.3-6 4.36-9.04 6.56H96c-26.51 0-48 21.49-48 48v44.14c-12.37 9.33-20.76 15.87-29.61 22.81A47.995 47.995 0 0 0 0 200.72v10.65l96 69.35V96h320v184.72l96-69.35v-10.65c0-14.74-6.78-28.67-18.39-37.77z"></path>

    <path id="rotateImage" d="M440.65 12.57l4 82.77A247.16 247.16 0 0 0 255.83 8C134.73 8 33.91 94.92 12.29 209.82A12 12 0 0 0 24.09 224h49.05a12 12 0 0 0 11.67-9.26 175.91 175.91 0 0 1 317-56.94l-101.46-4.86a12 12 0 0 0-12.57 12v47.41a12 12 0 0 0 12 12H500a12 12 0 0 0 12-12V12a12 12 0 0 0-12-12h-47.37a12 12 0 0 0-11.98 12.57zM255.83 432a175.61 175.61 0 0 1-146-77.8l101.8 4.87a12 12 0 0 0 12.57-12v-47.4a12 12 0 0 0-12-12H12a12 12 0 0 0-12 12V500a12 12 0 0 0 12 12h47.35a12 12 0 0 0 12-12.6l-4.15-82.57A247.17 247.17 0 0 0 255.83 504c121.11 0 221.93-86.92 243.55-201.82a12 12 0 0 0-11.8-14.18h-49.05a12 12 0 0 0-11.67 9.26A175.86 175.86 0 0 1 255.83 432z"></path>
    
    <path id="expandImage" d="M212.686 315.314L120 408l32.922 31.029c15.12 15.12 4.412 40.971-16.97 40.971h-112C10.697 480 0 469.255 0 456V344c0-21.382 25.803-32.09 40.922-16.971L72 360l92.686-92.686c6.248-6.248 16.379-6.248 22.627 0l25.373 25.373c6.249 6.248 6.249 16.378 0 22.627zm22.628-118.628L328 104l-32.922-31.029C279.958 57.851 290.666 32 312.048 32h112C437.303 32 448 42.745 448 56v112c0 21.382-25.803 32.09-40.922 16.971L376 152l-92.686 92.686c-6.248 6.248-16.379 6.248-22.627 0l-25.373-25.373c-6.249-6.248-6.249-16.378 0-22.627z"></path>

    <path id="modalArrowLeft" d="M30.512,13.642H8.854l5.472-5.487L12.171,6,3,15.171l9.171,9.171,2.155-2.155L8.854,16.7H30.512Z" transform="translate(-3 -6)"></path>

    <path id="industryFashion" d="M631.2 96.5L436.5 0C416.4 27.8 371.9 47.2 320 47.2S223.6 27.8 203.5 0L8.8 96.5c-7.9 4-11.1 13.6-7.2 21.5l57.2 114.5c4 7.9 13.6 11.1 21.5 7.2l56.6-27.7c10.6-5.2 23 2.5 23 14.4V480c0 17.7 14.3 32 32 32h256c17.7 0 32-14.3 32-32V226.3c0-11.8 12.4-19.6 23-14.4l56.6 27.7c7.9 4 17.5.8 21.5-7.2L638.3 118c4-7.9.8-17.6-7.1-21.5z"></path>

    <path id="industryBeauty" d="M248 8C111 8 0 119 0 256s111 248 248 248 248-111 248-248S385 8 248 8zm0 448c-110.3 0-200-89.7-200-200S137.7 56 248 56s200 89.7 200 200-89.7 200-200 200zm117.8-146.4c-10.2-8.5-25.3-7.1-33.8 3.1-20.8 25-51.5 39.4-84 39.4s-63.2-14.3-84-39.4c-8.5-10.2-23.7-11.5-33.8-3.1-10.2 8.5-11.5 23.6-3.1 33.8 30 36 74.1 56.6 120.9 56.6s90.9-20.6 120.9-56.6c8.5-10.2 7.1-25.3-3.1-33.8zM168 240c17.7 0 32-14.3 32-32s-14.3-32-32-32-32 14.3-32 32 14.3 32 32 32zm160-60c-25.7 0-55.9 16.9-59.9 42.1-1.7 11.2 11.5 18.2 19.8 10.8l9.5-8.5c14.8-13.2 46.2-13.2 61 0l9.5 8.5c8.5 7.4 21.6.3 19.8-10.8-3.8-25.2-34-42.1-59.7-42.1z"></path>

    <path id="bigCart" d="M528.12 301.319l47.273-208C578.806 78.301 567.391 64 551.99 64H159.208l-9.166-44.81C147.758 8.021 137.93 0 126.529 0H24C10.745 0 0 10.745 0 24v16c0 13.255 10.745 24 24 24h69.883l70.248 343.435C147.325 417.1 136 435.222 136 456c0 30.928 25.072 56 56 56s56-25.072 56-56c0-15.674-6.447-29.835-16.824-40h209.647C430.447 426.165 424 440.326 424 456c0 30.928 25.072 56 56 56s56-25.072 56-56c0-22.172-12.888-41.332-31.579-50.405l5.517-24.276c3.413-15.018-8.002-29.319-23.403-29.319H218.117l-6.545-32h293.145c11.206 0 20.92-7.754 23.403-18.681z"></path>

    <path id="cuduaCademy" d="M96 64h448v352h64V40c0-22.06-17.94-40-40-40H72C49.94 0 32 17.94 32 40v376h64V64zm528 384H480v-64H288v64H16c-8.84 0-16 7.16-16 16v32c0 8.84 7.16 16 16 16h608c8.84 0 16-7.16 16-16v-32c0-8.84-7.16-16-16-16z"></path>

    <path id="shareIcon" d="M352 320c-22.608 0-43.387 7.819-59.79 20.895l-102.486-64.054a96.551 96.551 0 0 0 0-41.683l102.486-64.054C308.613 184.181 329.392 192 352 192c53.019 0 96-42.981 96-96S405.019 0 352 0s-96 42.981-96 96c0 7.158.79 14.13 2.276 20.841L155.79 180.895C139.387 167.819 118.608 160 96 160c-53.019 0-96 42.981-96 96s42.981 96 96 96c22.608 0 43.387-7.819 59.79-20.895l102.486 64.054A96.301 96.301 0 0 0 256 416c0 53.019 42.981 96 96 96s96-42.981 96-96-42.981-96-96-96z"></path>

    <path id="instagram" d="M224.1 141c-63.6 0-114.9 51.3-114.9 114.9s51.3 114.9 114.9 114.9S339 319.5 339 255.9 287.7 141 224.1 141zm0 189.6c-41.1 0-74.7-33.5-74.7-74.7s33.5-74.7 74.7-74.7 74.7 33.5 74.7 74.7-33.6 74.7-74.7 74.7zm146.4-194.3c0 14.9-12 26.8-26.8 26.8-14.9 0-26.8-12-26.8-26.8s12-26.8 26.8-26.8 26.8 12 26.8 26.8zm76.1 27.2c-1.7-35.9-9.9-67.7-36.2-93.9-26.2-26.2-58-34.4-93.9-36.2-37-2.1-147.9-2.1-184.9 0-35.8 1.7-67.6 9.9-93.9 36.1s-34.4 58-36.2 93.9c-2.1 37-2.1 147.9 0 184.9 1.7 35.9 9.9 67.7 36.2 93.9s58 34.4 93.9 36.2c37 2.1 147.9 2.1 184.9 0 35.9-1.7 67.7-9.9 93.9-36.2 26.2-26.2 34.4-58 36.2-93.9 2.1-37 2.1-147.8 0-184.8zM398.8 388c-7.8 19.6-22.9 34.7-42.6 42.6-29.5 11.7-99.5 9-132.1 9s-102.7 2.6-132.1-9c-19.6-7.8-34.7-22.9-42.6-42.6-11.7-29.5-9-99.5-9-132.1s-2.6-102.7 9-132.1c7.8-19.6 22.9-34.7 42.6-42.6 29.5-11.7 99.5-9 132.1-9s102.7-2.6 132.1 9c19.6 7.8 34.7 22.9 42.6 42.6 11.7 29.5 9 99.5 9 132.1s2.7 102.7-9 132.1z"></path>

</svg>