<svg xmlns="http://www.w3.org/2000/svg" width="22" height="21" viewBox="0 0 22 21">
  <g id="Group_320" data-name="Group 320" transform="translate(2 0.734)">
    <g id="Group_321" data-name="Group 321" transform="translate(-110 -55)">
      <path id="ic_shop_two_24px" d="M3,9H1V20a1.993,1.993,0,0,0,2,2H17a1.993,1.993,0,0,0,2-2H3ZM18,5V3a1.993,1.993,0,0,0-2-2H12a1.993,1.993,0,0,0-2,2V5H5V16a1.993,1.993,0,0,0,2,2H21a1.993,1.993,0,0,0,2-2V5ZM12,3h4V5H12Zm0,12V8l5.5,3Z" transform="translate(107 53.266)" fill="rgba(0,0,0,0.6)"/>
    </g>
  </g>
</svg>
