<svg xmlns="http://www.w3.org/2000/svg" width="18" height="18.505" viewBox="0 0 18 18.505">
  <path id="ic_settings_24px" d="M18.147,12.159a7.21,7.21,0,0,0,.065-.907,7.211,7.211,0,0,0-.065-.907L20.1,8.819a.467.467,0,0,0,.111-.592l-1.85-3.2a.465.465,0,0,0-.564-.2l-2.3.925a6.76,6.76,0,0,0-1.564-.907l-.352-2.452A.451.451,0,0,0,13.123,2h-3.7a.451.451,0,0,0-.453.389L8.617,4.84a7.108,7.108,0,0,0-1.564.907l-2.3-.925a.451.451,0,0,0-.564.2l-1.85,3.2a.456.456,0,0,0,.111.592L4.4,10.346a7.338,7.338,0,0,0-.065.907,7.338,7.338,0,0,0,.065.907L2.446,13.686a.467.467,0,0,0-.111.592l1.85,3.2a.465.465,0,0,0,.564.2l2.3-.925a6.76,6.76,0,0,0,1.564.907l.352,2.452a.451.451,0,0,0,.453.389h3.7a.451.451,0,0,0,.453-.389l.352-2.452a7.109,7.109,0,0,0,1.564-.907l2.3.925a.451.451,0,0,0,.564-.2l1.85-3.2a.467.467,0,0,0-.111-.592Zm-6.875,2.332a3.238,3.238,0,1,1,3.238-3.238A3.242,3.242,0,0,1,11.273,14.491Z" transform="translate(-2.271 -2)" fill="rgba(0,0,0,0.6)"/>
</svg>
