<svg xmlns="http://www.w3.org/2000/svg" width="14" height="14" viewBox="0 0 14 14">
  <g id="Icon_Cancel_Filled" data-name="Icon / Cancel / Filled" opacity="0.5">
    <rect id="Box" width="14" height="14" transform="translate(0 0)" fill="none"/>
    <path id="Icon_Cancel_Dark" data-name="Icon / Cancel / Dark" d="M151.389-13.6l-.989.989-2.511-2.511-2.511,2.511-.989-.989,2.511-2.511-2.511-2.511.989-.989,2.511,2.511,2.511-2.511.989.989-2.511,2.511Zm-3.5-9.511a7,7,0,0,0-7,7,7,7,0,0,0,7,7,7,7,0,0,0,7-7,7,7,0,0,0-7-7Z" transform="translate(-140.889 23.111)" fill-rule="evenodd"/>
  </g>
</svg>
